<svg xmlns="http://www.w3.org/2000/svg" width="31.827" height="21.15" viewBox="0 0 31.827 21.15">
  <g id="hamburger" transform="translate(0.006 0.004)">
    <path id="Shape_4_copy_6" data-name="Shape 4 copy 6" d="M322.985,19.5H353.2a.944.944,0,0,1,.8,1.041.944.944,0,0,1-.8,1.04H322.985a.944.944,0,0,1-.8-1.04.944.944,0,0,1,.8-1.041Z" transform="translate(-322.185 -19.504)" fill="#1e5bdf"/>
    <path id="Shape_4_copy_7" data-name="Shape 4 copy 7" d="M322.985,29.037H353.2a1.076,1.076,0,0,1,0,2.08H322.985a1.076,1.076,0,0,1,0-2.08Z" transform="translate(-322.185 -19.504)" fill="#1e5bdf"/>
    <path id="Shape_4_copy_8" data-name="Shape 4 copy 8" d="M322.985,38.569H353.2a1.077,1.077,0,0,1,0,2.081H322.985a1.077,1.077,0,0,1,0-2.081Z" transform="translate(-322.185 -19.504)" fill="#1e5bdf"/>
  </g>
</svg>
